<svg height="512pt" viewBox="-51 0 512 512" width="512pt" xmlns="http://www.w3.org/2000/svg"><path d="m205.117188 0c-113.101563 0-205.117188 92.015625-205.117188 205.117188v5.667968c0 57.199219 32.792969 123.855469 97.472656 198.113282 46.886719 53.832031 93.121094 91.367187 95.066406 92.941406l12.578126 10.160156 12.574218-10.160156c1.945313-1.570313 48.179688-39.109375 95.066406-92.941406 64.679688-74.257813 97.472657-140.914063 97.472657-198.113282v-5.667968c0-113.101563-92.015625-205.117188-205.113281-205.117188zm165.089843 210.785156c0 96.664063-124.550781 213.679688-165.089843 249.203125-40.554688-35.535156-165.09375-152.542969-165.09375-249.203125v-5.667968c0-91.035157 74.058593-165.09375 165.09375-165.09375 91.03125 0 165.089843 74.058593 165.089843 165.09375zm-109.144531-17.914062c5.152344-9.042969 8.089844-19.453125 8.089844-30.53125 0-34.894532-28.707032-63.285156-63.992188-63.285156h-65.082031v213.121093h90.683594c34.960937 0 63.402343-28.390625 63.402343-63.285156 0-24.136719-13.394531-45.1875-33.101562-56.019531zm-80.960938-53.792969h25.058594c12.992188 0 23.96875 10.652344 23.96875 23.261719 0 12.550781-10.753906 22.765625-23.96875 22.765625h-25.058594zm50.660157 133.074219h-50.660157v-47.027344h50.660157c12.671875 0 23.382812 10.882812 23.382812 23.765625 0 12.828125-10.492187 23.261719-23.382812 23.261719zm0 0"/></svg>